<svg viewBox="0 0 60 61" xmlns="http://www.w3.org/2000/svg">
  <path fill-rule="evenodd" clip-rule="evenodd" d="M8.00012 24.5508C8.00012 15.4381 15.3874 8.05078 24.5001 8.05078C33.6128 8.05078 41.0001 15.4381 41.0001 24.5508C41.0001 33.6635 33.6128 41.0508 24.5001 41.0508C15.3874 41.0508 8.00012 33.6635 8.00012 24.5508ZM24.5001 1.05078C11.5214 1.05078 1.00012 11.5721 1.00012 24.5508C1.00012 37.5295 11.5214 48.0508 24.5001 48.0508C29.3629 48.0508 33.8807 46.5738 37.6294 44.044L51.3181 57.7328C53.0755 59.4901 55.9247 59.4901 57.6821 57.7328C59.4395 55.9754 59.4395 53.1262 57.6821 51.3688L43.9933 37.68C46.5231 33.9313 48.0001 29.4135 48.0001 24.5508C48.0001 11.5721 37.4788 1.05078 24.5001 1.05078Z" fill="inherit"/>
</svg>
